<?xml version="1.0" standalone="no"?>
<!DOCTYPE svg PUBLIC "-//W3C//DTD SVG 20010904//EN"
 "http://www.w3.org/TR/2001/REC-SVG-20010904/DTD/svg10.dtd">
<svg version="1.0" xmlns="http://www.w3.org/2000/svg"
 width="35" height="37" viewBox="0 0 35.000000 37.000000"
 preserveAspectRatio="xMidYMid meet">

<g transform="translate(0.000000,37.000000) scale(0.100000,-0.100000)"
fill="#000000" stroke="none">
<path d="M127 363 c-4 -3 -7 -12 -7 -20 0 -9 16 -13 55 -13 48 0 55 2 55 20 0
17 -7 20 -48 20 -27 0 -52 -3 -55 -7z"/>
<path d="M16 344 c-23 -23 -23 -305 0 -328 13 -13 42 -16 163 -16 101 0 151 4
159 12 8 8 12 59 12 164 0 125 -3 155 -16 168 -17 18 -64 22 -64 6 0 -5 8 -10
19 -10 37 0 42 -22 39 -171 l-3 -144 -139 -3 c-93 -2 -143 1 -152 9 -11 9 -14
44 -14 148 0 141 5 161 42 161 10 0 18 5 18 10 0 16 -47 12 -64 -6z"/>
<path d="M80 255 c0 -12 17 -15 95 -15 78 0 95 3 95 15 0 12 -17 15 -95 15
-78 0 -95 -3 -95 -15z"/>
<path d="M80 190 c0 -6 38 -10 95 -10 57 0 95 4 95 10 0 6 -38 10 -95 10 -57
0 -95 -4 -95 -10z"/>
<path d="M80 120 c0 -6 38 -10 95 -10 57 0 95 4 95 10 0 6 -38 10 -95 10 -57
0 -95 -4 -95 -10z"/>
</g>
</svg>
